<svg xmlns="http://www.w3.org/2000/svg" width="22.723" height="22.723" viewBox="0 0 22.723 22.723">
  <path id="user_2_" data-name="user (2)" d="M19.4,3.328A11.361,11.361,0,0,0,3.328,19.4,11.361,11.361,0,0,0,19.4,3.328ZM4.931,19.053a6.5,6.5,0,0,1,6.431-5.72,6.476,6.476,0,0,1,6.431,5.72,10.009,10.009,0,0,1-12.861,0Zm6.431-7.092A3.451,3.451,0,1,1,14.812,8.51,3.455,3.455,0,0,1,11.361,11.961Zm7.577,5.966a7.827,7.827,0,0,0-4.9-5.456,4.782,4.782,0,1,0-5.353,0,7.82,7.82,0,0,0-4.9,5.454,10.03,10.03,0,1,1,15.154,0Zm0,0" fill="#fff"/>
</svg>
