<svg xmlns="http://www.w3.org/2000/svg" width="20.068" height="21.55" viewBox="0 0 20.068 21.55">
  <g id="user-and-clock" transform="translate(-1.1)">
    <path id="Tracé_2206" data-name="Tracé 2206" d="M15.041,14.041H11V10h1.347v2.694h2.694Z" transform="translate(3.434 3.469)" fill="#eb9530"/>
    <path id="Tracé_2207" data-name="Tracé 2207" d="M21.168,16.836a6.036,6.036,0,0,0-6.061-6.061,6.131,6.131,0,0,0-2.694.673c.269-.4,1.077-.4,1.886-1.616,0,0,3.637-9.832-3.906-9.832S6.487,9.832,6.487,9.832c.808,1.347,1.886,1.077,1.886,2.02S7.43,12.8,6.487,12.93c-1.482.135-2.828-.135-4.175,2.29C1.5,16.7,1.1,21.55,1.1,21.55H15.107a4.714,4.714,0,1,1,4.714-4.714,4.772,4.772,0,0,1-4.714,4.714h4.579v-.673A6.706,6.706,0,0,0,21.168,16.836Z" transform="translate(0)" fill="#eb9530"/>
  </g>
</svg>
