<svg xmlns="http://www.w3.org/2000/svg" width="21.316" height="21.316" viewBox="0 0 21.316 21.316">
  <g id="settings" transform="translate(0 0)">
    <g id="Groupe_444" data-name="Groupe 444" transform="translate(0 0)">
      <path id="Tracé_2194" data-name="Tracé 2194" d="M20.225,8.421l-1.5-.254a8.448,8.448,0,0,0-.6-1.452l.882-1.233a1.313,1.313,0,0,0-.142-1.7L17.54,2.459a1.307,1.307,0,0,0-.931-.387,1.294,1.294,0,0,0-.761.245L14.61,3.2A8.36,8.36,0,0,0,13.1,2.579L12.855,1.1a1.315,1.315,0,0,0-1.3-1.1H9.681a1.315,1.315,0,0,0-1.3,1.1L8.122,2.615a8.24,8.24,0,0,0-1.447.61L5.45,2.343a1.315,1.315,0,0,0-1.7.142L2.422,3.813a1.318,1.318,0,0,0-.142,1.7L3.17,6.76a8.252,8.252,0,0,0-.592,1.456L1.1,8.466A1.315,1.315,0,0,0,0,9.766v1.875a1.315,1.315,0,0,0,1.1,1.3l1.514.258a8.24,8.24,0,0,0,.61,1.447l-.877,1.22a1.313,1.313,0,0,0,.142,1.7L3.816,18.89a1.307,1.307,0,0,0,.931.387,1.294,1.294,0,0,0,.761-.245l1.251-.891a8.424,8.424,0,0,0,1.407.579l.249,1.5a1.315,1.315,0,0,0,1.3,1.1H11.6a1.315,1.315,0,0,0,1.3-1.1l.254-1.5a8.448,8.448,0,0,0,1.452-.6L15.834,19a1.307,1.307,0,0,0,.766.245h0a1.307,1.307,0,0,0,.931-.387l1.327-1.327a1.318,1.318,0,0,0,.142-1.7L18.119,14.6a8.388,8.388,0,0,0,.6-1.452l1.5-.249a1.315,1.315,0,0,0,1.1-1.3V9.722A1.3,1.3,0,0,0,20.225,8.421Zm-.1,3.175a.115.115,0,0,1-.1.116l-1.87.312a.6.6,0,0,0-.481.441A7.128,7.128,0,0,1,16.9,14.33a.6.6,0,0,0,.027.655l1.1,1.55a.121.121,0,0,1-.013.151l-1.327,1.327a.113.113,0,0,1-.085.036.109.109,0,0,1-.067-.022l-1.545-1.1a.6.6,0,0,0-.655-.027,7.128,7.128,0,0,1-1.866.775.591.591,0,0,0-.441.481l-.316,1.87a.115.115,0,0,1-.116.1H9.721a.115.115,0,0,1-.116-.1l-.312-1.87a.6.6,0,0,0-.441-.481,7.4,7.4,0,0,1-1.826-.748.616.616,0,0,0-.3-.08.586.586,0,0,0-.347.111L4.818,18.066a.133.133,0,0,1-.067.022.119.119,0,0,1-.085-.036L3.34,16.726a.121.121,0,0,1-.013-.151l1.1-1.536a.61.61,0,0,0,.027-.659,7.061,7.061,0,0,1-.784-1.861.61.61,0,0,0-.481-.441L1.3,11.757a.115.115,0,0,1-.1-.116V9.766a.115.115,0,0,1,.1-.116l1.857-.312a.6.6,0,0,0,.485-.445A7.121,7.121,0,0,1,4.4,7.023a.6.6,0,0,0-.031-.65L3.264,4.815a.121.121,0,0,1,.013-.151L4.6,3.336A.113.113,0,0,1,4.689,3.3a.109.109,0,0,1,.067.022l1.536,1.1a.61.61,0,0,0,.659.027,7.061,7.061,0,0,1,1.861-.784.61.61,0,0,0,.441-.481L9.574,1.3a.115.115,0,0,1,.116-.1h1.875a.115.115,0,0,1,.116.1l.312,1.857a.6.6,0,0,0,.445.485,7.228,7.228,0,0,1,1.91.784A.6.6,0,0,0,15,4.4l1.536-1.1a.132.132,0,0,1,.067-.022.119.119,0,0,1,.085.036l1.327,1.327a.121.121,0,0,1,.013.151l-1.1,1.545a.6.6,0,0,0-.027.655,7.128,7.128,0,0,1,.775,1.866.591.591,0,0,0,.481.441l1.87.316a.115.115,0,0,1,.1.116V11.6Z" transform="translate(0 -0.001)" fill="#274878"/>
      <path id="Tracé_2195" data-name="Tracé 2195" d="M140.7,136a4.6,4.6,0,1,0,4.6,4.6A4.6,4.6,0,0,0,140.7,136Zm0,8a3.4,3.4,0,1,1,3.4-3.4A3.4,3.4,0,0,1,140.7,144Z" transform="translate(-130.04 -129.945)" fill="#274878"/>
    </g>
  </g>
</svg>
