<svg xmlns="http://www.w3.org/2000/svg" width="68.885" height="88.977" viewBox="0 0 68.885 88.977">
  <g id="doctor_6_" data-name="doctor (6)" transform="translate(-12.645)">
    <path id="Tracé_2112" data-name="Tracé 2112" d="M75.349,79.206,60.224,74.757H33.952L18.826,79.206a8.611,8.611,0,0,0-6.181,8.261v12.572a4.305,4.305,0,0,0,4.305,4.305H77.225a4.305,4.305,0,0,0,4.305-4.305V87.466A8.611,8.611,0,0,0,75.349,79.206Z" transform="translate(0 -15.368)" fill="#edebed"/>
    <path id="Tracé_2113" data-name="Tracé 2113" d="M60.576,104.573H46.225l-2.87-28.7H63.446Z" transform="translate(-6.313 -15.597)" fill="#a5cdff"/>
    <path id="Tracé_2114" data-name="Tracé 2114" d="M43.355,75.871l.43,4.3a12.873,12.873,0,0,0,19.232,0l.43-4.3Z" transform="translate(-6.313 -15.597)" fill="#8cb4eb"/>
    <path id="Tracé_2115" data-name="Tracé 2115" d="M53.4,77.9h0A10.046,10.046,0,0,1,43.355,67.852V57.806H63.446V67.852A10.046,10.046,0,0,1,53.4,77.9Z" transform="translate(-6.313 -11.883)" fill="#f7d291"/>
    <path id="Tracé_2116" data-name="Tracé 2116" d="M43.355,63.878a21.144,21.144,0,0,0,20.091,0V57.806H43.355Z" transform="translate(-6.313 -11.883)" fill="#f0c382"/>
    <path id="Tracé_2117" data-name="Tracé 2117" d="M69.432,30.609h-.718V16.258H31.4V30.609h-.718a3.588,3.588,0,0,0,0,7.175h.79a18.638,18.638,0,0,0,37.168,0h.79a3.588,3.588,0,0,0,0-7.176Z" transform="translate(-2.971 -3.342)" fill="#ffe1a0"/>
    <g id="Groupe_410" data-name="Groupe 410" transform="translate(37.042 27.392)">
      <path id="Tracé_2118" data-name="Tracé 2118" d="M44.79,38.785a1.435,1.435,0,0,1-1.435-1.435V35.915a1.435,1.435,0,0,1,2.87,0V37.35A1.435,1.435,0,0,1,44.79,38.785Z" transform="translate(-43.355 -34.48)" fill="#6e5a64"/>
      <path id="Tracé_2119" data-name="Tracé 2119" d="M66.467,38.785a1.435,1.435,0,0,1-1.435-1.435V35.915a1.435,1.435,0,0,1,2.87,0V37.35A1.435,1.435,0,0,1,66.467,38.785Z" transform="translate(-47.811 -34.48)" fill="#6e5a64"/>
    </g>
    <g id="Groupe_411" data-name="Groupe 411" transform="translate(35.607 22.962)">
      <path id="Tracé_2120" data-name="Tracé 2120" d="M45.854,31.773h-2.87a1.435,1.435,0,1,1,0-2.87h2.87a1.435,1.435,0,1,1,0,2.87Z" transform="translate(-41.549 -28.903)" fill="#a06e50"/>
      <path id="Tracé_2121" data-name="Tracé 2121" d="M67.531,31.773h-2.87a1.435,1.435,0,0,1,0-2.87h2.87a1.435,1.435,0,1,1,0,2.87Z" transform="translate(-46.005 -28.903)" fill="#a06e50"/>
    </g>
    <path id="Tracé_2122" data-name="Tracé 2122" d="M31.4,16.258V30.609h-.592a3.67,3.67,0,0,0-3.583,2.614,3.6,3.6,0,0,0,3.457,4.562h.79a18.524,18.524,0,0,0,21.463,16.98,18.644,18.644,0,0,1-15.8-18.415V27.629a5.807,5.807,0,0,1,6.2-5.835c.94.078,1.927.119,2.964.119A55.151,55.151,0,0,0,60.12,19.939a9.637,9.637,0,0,0,5.35-3.68Z" transform="translate(-2.971 -3.342)" fill="#f7d291"/>
    <path id="Tracé_2123" data-name="Tracé 2123" d="M38.769,9.03l.179,5.74s-4.305,4.305-4.305,10.046v1.772a2.87,2.87,0,0,1-2.514,2.848l-3.226.4V17.64C28.9,12.885,33.388,8.79,38.769,9.03Z" transform="translate(-3.342 -1.854)" fill="#a06e50"/>
    <path id="Tracé_2124" data-name="Tracé 2124" d="M73.194,81.533l-2.843-2.843,3.042-4.056a1.757,1.757,0,0,0-.62-2.626l-6.727-3.364L56,103.088h8.611l9.121-18.241A2.87,2.87,0,0,0,73.194,81.533Z" transform="translate(-8.912 -14.111)" fill="#dbd9dc"/>
    <path id="Tracé_2125" data-name="Tracé 2125" d="M88.094,99.33H85.942V97.177a1.435,1.435,0,0,0-2.87,0V99.33H80.919a1.435,1.435,0,0,0,0,2.87h2.153v2.153a1.435,1.435,0,1,0,2.87,0V102.2h2.153a1.435,1.435,0,1,0,0-2.87Z" transform="translate(-13.74 -19.681)" fill="#a5cdff"/>
    <path id="Tracé_2126" data-name="Tracé 2126" d="M70.631,3.61l-.179,10.046s4.305,4.305,4.305,10.046v1.772a2.87,2.87,0,0,0,2.514,2.848l3.226.4v-16.5C80.5,7.465,76.013,3.371,70.631,3.61Z" transform="translate(-11.883 -0.74)" fill="#cd916e"/>
    <path id="Tracé_2127" data-name="Tracé 2127" d="M54.515,51.273A7.68,7.68,0,0,1,49.2,49.425a1.435,1.435,0,0,1,2.015-2.043,4.88,4.88,0,0,0,3.3,1.022,4.88,4.88,0,0,0,3.3-1.022,1.435,1.435,0,0,1,2.015,2.043A7.679,7.679,0,0,1,54.515,51.273Z" transform="translate(-7.427 -9.655)" fill="#e3aa75"/>
    <path id="Tracé_2128" data-name="Tracé 2128" d="M34.14,81.533l2.843-2.843L33.94,74.635a1.757,1.757,0,0,1,.62-2.626l6.727-3.364,10.046,34.443H42.723L33.6,84.846A2.87,2.87,0,0,1,34.14,81.533Z" transform="translate(-4.246 -14.111)" fill="#dbd9dc"/>
    <path id="Tracé_2129" data-name="Tracé 2129" d="M53.237,0C41.264,0,38.969,3.64,29.749,6.576a1,1,0,0,0-.561,1.5c2,3.129,9.447,11.286,30.6,5.748a6.7,6.7,0,0,0,4.884-5.157h0a6.71,6.71,0,0,0-3.845-7.108A17.674,17.674,0,0,0,53.237,0Z" transform="translate(-3.369)" fill="#b67f5f"/>
    <path id="Tracé_2130" data-name="Tracé 2130" d="M34.593,109.772H23.112a1.435,1.435,0,0,1-1.435-1.435V102.6a1.435,1.435,0,0,1,1.435-1.435H34.593a1.435,1.435,0,0,1,1.435,1.435v5.74A1.435,1.435,0,0,1,34.593,109.772Z" transform="translate(-1.857 -20.795)" fill="#a5cdff"/>
    <path id="Tracé_2131" data-name="Tracé 2131" d="M30.338,102.918a1.434,1.434,0,0,1-1.435-1.435V97.177a1.435,1.435,0,0,1,2.87,0v4.305A1.434,1.434,0,0,1,30.338,102.918Z" transform="translate(-3.342 -19.681)" fill="#fff"/>
    <path id="Tracé_2132" data-name="Tracé 2132" d="M34.593,108.016H23.112a1.435,1.435,0,0,1-1.435-1.435v2.87a1.435,1.435,0,0,0,1.435,1.435H34.593a1.435,1.435,0,0,0,1.435-1.435v-2.87A1.435,1.435,0,0,1,34.593,108.016Z" transform="translate(-1.857 -21.909)" fill="#8cb4eb"/>
  </g>
</svg>
