<svg id="clipboard" xmlns="http://www.w3.org/2000/svg" width="64.528" height="82.292" viewBox="0 0 64.528 82.292">
  <path id="Tracé_2240" data-name="Tracé 2240" d="M63.305,26.812a1.222,1.222,0,0,0,1.222-1.222V12.069a6.528,6.528,0,0,0-6.521-6.521H49.129V5.212A5.218,5.218,0,0,0,43.917,0H20.611A5.218,5.218,0,0,0,15.4,5.212v.335H6.521A6.529,6.529,0,0,0,0,12.069v63.7a6.529,6.529,0,0,0,6.521,6.521H58.006a6.529,6.529,0,0,0,6.522-6.521V29.664a1.222,1.222,0,1,0-2.445,0V75.771a4.082,4.082,0,0,1-4.077,4.077H6.521a4.082,4.082,0,0,1-4.077-4.077v-63.7A4.082,4.082,0,0,1,6.521,7.992H15.4v4.073H7.741a1.222,1.222,0,0,0-1.222,1.222V53.535a1.222,1.222,0,1,0,2.444,0V14.509H15.4v0a5.218,5.218,0,0,0,5.212,5.212H43.917a5.218,5.218,0,0,0,5.212-5.212v0h6.436V63.373H46.83A1.223,1.223,0,0,0,45.608,64.6V73.33H8.962V57.609a1.222,1.222,0,0,0-2.444,0V74.552a1.223,1.223,0,0,0,1.222,1.222H46.83a1.222,1.222,0,0,0,.865-.358l9.956-9.957a1.222,1.222,0,0,0,.358-.864V13.287a1.222,1.222,0,0,0-1.222-1.222H49.129V7.992h8.876a4.082,4.082,0,0,1,4.078,4.077V25.59A1.221,1.221,0,0,0,63.305,26.812ZM53.836,65.817,48.052,71.6V65.817ZM17.843,5.212a2.771,2.771,0,0,1,2.768-2.768H43.917a2.771,2.771,0,0,1,2.768,2.768v.335H17.843Zm28.841,9.3a2.77,2.77,0,0,1-2.768,2.768H20.611a2.77,2.77,0,0,1-2.768-2.768v0H46.684Zm0-2.447H17.843V7.992H46.684Zm0,0" fill="#2eaec4"/>
  <path id="Tracé_2241" data-name="Tracé 2241" d="M90.485,159.131h.041a1.222,1.222,0,0,0,1.079-.73L96,148.38a1.222,1.222,0,1,0-2.238-.983l-3.374,7.684-2-3.846a1.222,1.222,0,0,0-2.169,1.128l3.178,6.111A1.22,1.22,0,0,0,90.485,159.131Zm0,0" transform="translate(-72.25 -123.093)" fill="#2eaec4"/>
  <path id="Tracé_2242" data-name="Tracé 2242" d="M172.468,165.081h22a1.222,1.222,0,1,0,0-2.444h-22a1.222,1.222,0,1,0,0,2.444Zm0,0" transform="translate(-143.722 -136.497)" fill="#2eaec4"/>
  <path id="Tracé_2243" data-name="Tracé 2243" d="M172.468,195.495h13.687a1.222,1.222,0,1,0,0-2.444H172.468a1.222,1.222,0,1,0,0,2.444Zm0,0" transform="translate(-143.722 -162.022)" fill="#2eaec4"/>
  <path id="Tracé_2244" data-name="Tracé 2244" d="M86.224,240.186,89.4,246.3a1.222,1.222,0,0,0,1.084.658h.041a1.223,1.223,0,0,0,1.079-.73L96,236.2a1.222,1.222,0,0,0-2.238-.983L90.392,242.9l-2-3.846a1.222,1.222,0,0,0-2.169,1.128Zm0,0" transform="translate(-72.25 -196.801)" fill="#2eaec4"/>
  <path id="Tracé_2245" data-name="Tracé 2245" d="M172.468,252.9h22a1.222,1.222,0,1,0,0-2.444h-22a1.222,1.222,0,1,0,0,2.444Zm0,0" transform="translate(-143.722 -210.202)" fill="#2eaec4"/>
  <path id="Tracé_2246" data-name="Tracé 2246" d="M172.468,283.315h13.687a1.222,1.222,0,1,0,0-2.444H172.468a1.222,1.222,0,1,0,0,2.444Zm0,0" transform="translate(-143.722 -235.727)" fill="#2eaec4"/>
  <path id="Tracé_2247" data-name="Tracé 2247" d="M172.468,340.722h22a1.222,1.222,0,1,0,0-2.444h-22a1.222,1.222,0,1,0,0,2.444Zm0,0" transform="translate(-143.722 -283.907)" fill="#2eaec4"/>
  <path id="Tracé_2248" data-name="Tracé 2248" d="M172.468,371.136h13.687a1.222,1.222,0,1,0,0-2.444H172.468a1.222,1.222,0,1,0,0,2.444Zm0,0" transform="translate(-143.722 -309.433)" fill="#2eaec4"/>
</svg>
