<svg xmlns="http://www.w3.org/2000/svg" width="43.209" height="43.211" viewBox="0 0 43.209 43.211">
  <g id="user_1_" data-name="user (1)" transform="translate(0 0)">
    <path id="Tracé_2186" data-name="Tracé 2186" d="M16.918,35.355l-6.447,3.516a5.793,5.793,0,0,0-1.035.736,21.592,21.592,0,0,0,27.742.072,5.719,5.719,0,0,0-1.137-.761l-6.9-3.451a2.632,2.632,0,0,1-1.455-2.355V30.4a10.427,10.427,0,0,0,.653-.84,15.884,15.884,0,0,0,2.146-4.324,2.168,2.168,0,0,0,1.538-2.063V20.286a2.158,2.158,0,0,0-.722-1.6V14.5S32.157,8,23.349,8,15.4,14.5,15.4,14.5v4.179a2.155,2.155,0,0,0-.722,1.6v2.891a2.167,2.167,0,0,0,1,1.819A14.347,14.347,0,0,0,18.291,30.4v2.642A2.635,2.635,0,0,1,16.918,35.355Z" transform="translate(-1.743 -1.478)" fill="#e7eced"/>
    <g id="Groupe_441" data-name="Groupe 441" transform="translate(0 0)">
      <path id="Tracé_2187" data-name="Tracé 2187" d="M21.975,0A21.592,21.592,0,0,0,7.7,38.123a5.741,5.741,0,0,1,1.025-.729l6.447-3.516a2.633,2.633,0,0,0,1.372-2.311V28.925a14.333,14.333,0,0,1-2.614-5.408,2.168,2.168,0,0,1-1-1.819V18.807a2.158,2.158,0,0,1,.722-1.6V13.026s-.859-6.5,7.949-6.5,7.949,6.5,7.949,6.5v4.179a2.155,2.155,0,0,1,.722,1.6V21.7a2.168,2.168,0,0,1-1.538,2.063,15.884,15.884,0,0,1-2.146,4.324,10.426,10.426,0,0,1-.653.84v2.708a2.632,2.632,0,0,0,1.455,2.355l6.9,3.451a5.748,5.748,0,0,1,1.133.76A21.6,21.6,0,0,0,21.975,0Z" transform="translate(0 0)" fill="#2eaec4"/>
    </g>
  </g>
</svg>
