<svg xmlns="http://www.w3.org/2000/svg" width="22.5" height="22.501" viewBox="0 0 22.5 22.501">
  <g id="write-board" transform="translate(-0.001)">
    <path id="Tracé_2196" data-name="Tracé 2196" d="M21.792,1.171H11.961V.71a.71.71,0,1,0-1.42,0v.461H.711a.71.71,0,0,0-.71.71V4.223a.71.71,0,0,0,.71.71h.461V17.106a.71.71,0,0,0,.71.71h7.95L7.17,21.365a.71.71,0,1,0,1.136.852l2.236-2.981v2.555a.71.71,0,0,0,1.42,0V19.235L14.2,22.217a.71.71,0,0,0,1.136-.852l-2.662-3.549h7.95a.71.71,0,0,0,.71-.71V4.933h.461a.71.71,0,0,0,.71-.71V1.881A.71.71,0,0,0,21.792,1.171ZM1.421,3.513V2.591H21.082v.923ZM19.911,16.4H2.592V4.933H19.911V16.4Z" fill="#274878"/>
    <path id="Tracé_2197" data-name="Tracé 2197" d="M62.546,125.093h10.54a.71.71,0,0,0,0-1.42H62.546a.71.71,0,0,0,0,1.42Z" transform="translate(-57.15 -114.304)" fill="#274878"/>
    <path id="Tracé_2198" data-name="Tracé 2198" d="M62.546,94.175h2.342a.71.71,0,1,0,0-1.42H62.546a.71.71,0,0,0,0,1.42Z" transform="translate(-57.15 -85.728)" fill="#274878"/>
    <path id="Tracé_2199" data-name="Tracé 2199" d="M62.546,156.01h7.027a.71.71,0,0,0,0-1.42H62.546a.71.71,0,0,0,0,1.42Z" transform="translate(-57.15 -142.878)" fill="#274878"/>
  </g>
</svg>
