<svg xmlns="http://www.w3.org/2000/svg" width="23.839" height="23.839" viewBox="0 0 23.839 23.839">
  <g id="cancel" transform="translate(0 -0.003)">
    <path id="Tracé_2271" data-name="Tracé 2271" d="M23.839,11.923A11.92,11.92,0,1,0,11.92,23.842,11.92,11.92,0,0,0,23.839,11.923Z" transform="translate(0 0)" fill="#e04f5f"/>
    <path id="Tracé_2272" data-name="Tracé 2272" d="M147.794,133.4l3.485-4.045a1.054,1.054,0,0,0-1.6-1.376l-3.279,3.806-3.278-3.806a1.054,1.054,0,1,0-1.6,1.376l3.485,4.045-3.485,4.045a1.054,1.054,0,0,0,1.6,1.376l3.278-3.806,3.279,3.806a1.055,1.055,0,0,0,1.6-1.376Z" transform="translate(-134.482 -121.481)" fill="#fff"/>
  </g>
</svg>
