<svg id="message" xmlns="http://www.w3.org/2000/svg" width="47.884" height="44.739" viewBox="0 0 47.884 44.739">
  <g id="Groupe_476" data-name="Groupe 476" transform="translate(0 0)">
    <g id="Groupe_475" data-name="Groupe 475">
      <path id="Tracé_2208" data-name="Tracé 2208" d="M47.848,33.722a.707.707,0,0,0-.044-.243,1.222,1.222,0,0,0-.482-.681l-6.855-4.765V22.925A1.226,1.226,0,0,0,39.241,21.7H31.355l-6.71-4.665a1.226,1.226,0,0,0-1.4,0L16.5,21.7H8.644a1.226,1.226,0,0,0-1.226,1.226v5.048L.53,32.733A1.224,1.224,0,0,0,0,33.724c0,.007,0,.014,0,.022L.037,60.329a1.226,1.226,0,0,0,1.226,1.225h0l45.4-.062a1.226,1.226,0,0,0,1.225-1.228Zm-7.381-2.7,3.918,2.723-3.918,2.724ZM23.944,19.533,27.059,21.7H20.81ZM9.87,24.151H38.014V38.172l-9.449,6.569-3.853-2.988-.017-.012a1.226,1.226,0,0,0-1.486.012l-3.881,3.01L9.87,38.227Zm-2.453,6.8v5.578L3.383,33.743ZM2.456,36.085,17.3,46.34,2.486,57.827ZM4.852,59.1,23.961,44.274,43,59.043ZM30.6,46.317,45.4,36.026l.03,21.8Z" transform="translate(0 -16.814)" fill="#eb9530"/>
    </g>
  </g>
  <g id="Groupe_478" data-name="Groupe 478" transform="translate(14.414 12.242)">
    <g id="Groupe_477" data-name="Groupe 477">
      <path id="Tracé_2209" data-name="Tracé 2209" d="M171.952,147.713h-16.6a1.226,1.226,0,1,0,0,2.453h16.6a1.226,1.226,0,0,0,0-2.453Z" transform="translate(-154.122 -147.713)" fill="#eb9530"/>
    </g>
  </g>
  <g id="Groupe_480" data-name="Groupe 480" transform="translate(14.414 18.619)">
    <g id="Groupe_479" data-name="Groupe 479">
      <path id="Tracé_2210" data-name="Tracé 2210" d="M171.952,215.895h-16.6a1.226,1.226,0,1,0,0,2.453h16.6a1.226,1.226,0,0,0,0-2.453Z" transform="translate(-154.122 -215.895)" fill="#eb9530"/>
    </g>
  </g>
</svg>
