<svg xmlns="http://www.w3.org/2000/svg" width="50.319" height="50.31" viewBox="0 0 50.319 50.31">
  <g id="resume" transform="translate(0.243 0.25)">
    <g id="Groupe_482" data-name="Groupe 482" transform="translate(0.007)">
      <g id="Groupe_481" data-name="Groupe 481" transform="translate(0)">
        <path id="Tracé_2211" data-name="Tracé 2211" d="M40.283,14.471a.973.973,0,0,0,.973-.973V2.919A2.922,2.922,0,0,0,38.337,0H2.926A2.922,2.922,0,0,0,.007,2.919V46.891A2.922,2.922,0,0,0,2.926,49.81H38.337a2.922,2.922,0,0,0,2.919-2.919V39.724a.973.973,0,1,0-1.946,0v7.167a.974.974,0,0,1-.973.973H2.926a.974.974,0,0,1-.973-.973V2.919a.974.974,0,0,1,.973-.973H38.337a.974.974,0,0,1,.973.973V13.5A.973.973,0,0,0,40.283,14.471Z" transform="translate(-0.007)" fill="#eb9530" stroke="#ea9430" stroke-width="0.5"/>
      </g>
    </g>
    <g id="Groupe_484" data-name="Groupe 484" transform="translate(11.681 5.253)">
      <g id="Groupe_483" data-name="Groupe 483">
        <path id="Tracé_2212" data-name="Tracé 2212" d="M128.957,54a8.946,8.946,0,0,0-6.14,15.456.964.964,0,0,0,.1.1,8.933,8.933,0,0,0,12.072,0,.972.972,0,0,0,.1-.1A8.946,8.946,0,0,0,128.957,54Zm0,15.955a6.967,6.967,0,0,1-4.231-1.427,4.864,4.864,0,0,1,8.462,0A6.967,6.967,0,0,1,128.957,69.955ZM127.4,62.561v-.632a1.557,1.557,0,0,1,3.113,0v.632a1.557,1.557,0,0,1-3.113,0Zm7.193,4.542a6.749,6.749,0,0,0-2.866-2.4,3.484,3.484,0,0,0,.732-2.139v-.632a3.5,3.5,0,0,0-7,0v.632a3.484,3.484,0,0,0,.732,2.139,6.749,6.749,0,0,0-2.866,2.4,7,7,0,1,1,11.273,0Z" transform="translate(-120.007 -54)" fill="#eb9530" stroke="#ea9430" stroke-width="0.5"/>
      </g>
    </g>
    <g id="Groupe_486" data-name="Groupe 486" transform="translate(19.659 42.611)">
      <g id="Groupe_485" data-name="Groupe 485">
        <path id="Tracé_2213" data-name="Tracé 2213" d="M208.233,438H202.98a.973.973,0,0,0,0,1.946h5.253a.973.973,0,0,0,0-1.946Z" transform="translate(-202.007 -438)" fill="#eb9530" stroke="#ea9430" stroke-width="0.5"/>
      </g>
    </g>
    <g id="Groupe_488" data-name="Groupe 488" transform="translate(11.097 37.163)">
      <g id="Groupe_487" data-name="Groupe 487">
        <path id="Tracé_2214" data-name="Tracé 2214" d="M128.794,382H114.98a.973.973,0,0,0,0,1.946h13.814a.973.973,0,0,0,0-1.946Z" transform="translate(-114.007 -382)" fill="#eb9530" stroke="#ea9430" stroke-width="0.5"/>
      </g>
    </g>
    <g id="Groupe_490" data-name="Groupe 490" transform="translate(11.097 31.715)">
      <g id="Groupe_489" data-name="Groupe 489">
        <path id="Tracé_2215" data-name="Tracé 2215" d="M128.794,326H114.98a.973.973,0,0,0,0,1.946h13.814a.973.973,0,1,0,0-1.946Z" transform="translate(-114.007 -326)" fill="#eb9530" stroke="#ea9430" stroke-width="0.5"/>
      </g>
    </g>
    <g id="Groupe_492" data-name="Groupe 492" transform="translate(6.941 26.267)">
      <g id="Groupe_491" data-name="Groupe 491">
        <path id="Tracé_2216" data-name="Tracé 2216" d="M72.949,270.285a.972.972,0,1,0,.285.688A.98.98,0,0,0,72.949,270.285Z" transform="translate(-71.287 -270)" fill="#eb9530" stroke="#ea9430" stroke-width="0.5"/>
      </g>
    </g>
    <g id="Groupe_494" data-name="Groupe 494" transform="translate(6.941 31.715)">
      <g id="Groupe_493" data-name="Groupe 493">
        <path id="Tracé_2217" data-name="Tracé 2217" d="M72.949,326.285a.972.972,0,1,0,.285.688A.982.982,0,0,0,72.949,326.285Z" transform="translate(-71.287 -326)" fill="#eb9530" stroke="#ea9430" stroke-width="0.5"/>
      </g>
    </g>
    <g id="Groupe_496" data-name="Groupe 496" transform="translate(6.941 37.163)">
      <g id="Groupe_495" data-name="Groupe 495">
        <path id="Tracé_2218" data-name="Tracé 2218" d="M72.949,382.285a.972.972,0,1,0,.285.688A.982.982,0,0,0,72.949,382.285Z" transform="translate(-71.287 -382)" fill="#eb9530" stroke="#ea9430" stroke-width="0.5"/>
      </g>
    </g>
    <g id="Groupe_498" data-name="Groupe 498" transform="translate(11.097 26.267)">
      <g id="Groupe_497" data-name="Groupe 497">
        <path id="Tracé_2219" data-name="Tracé 2219" d="M128.794,270H114.98a.973.973,0,1,0,0,1.946h13.814a.973.973,0,1,0,0-1.946Z" transform="translate(-114.007 -270)" fill="#eb9530" stroke="#ea9430" stroke-width="0.5"/>
      </g>
    </g>
    <g id="Groupe_500" data-name="Groupe 500" transform="translate(28.957 12.129)">
      <g id="Groupe_499" data-name="Groupe 499">
        <path id="Tracé_2220" data-name="Tracé 2220" d="M316.405,125.224a4.086,4.086,0,0,0-5.582,1.5l-12.243,21.2a.976.976,0,0,0-.124.379l-.862,7.719a.973.973,0,0,0,1.544.891l6.254-4.606a.971.971,0,0,0,.266-.3l12.242-21.2A4.091,4.091,0,0,0,316.405,125.224Zm-16.63,28.8.45-4.031,2.816,1.626Zm4.684-3.833-3.707-2.14,9.824-17.016,3.707,2.14Zm11.756-20.362-.959,1.661-3.707-2.14.959-1.661a2.14,2.14,0,0,1,3.707,2.14Z" transform="translate(-297.589 -124.675)" fill="#eb9530" stroke="#ea9430" stroke-width="0.5"/>
      </g>
    </g>
  </g>
</svg>
