
<svg version="1.1" id="B-flou0-160x160-bleu" xmlns="http://www.w3.org/2000/svg" xmlns:xlink="http://www.w3.org/1999/xlink"
	  width="28" height="28" x="0px" y="0px" viewBox="0 0 28 28" style="enable-background:new 0 0 28 28;" xml:space="preserve">
<style type="text/css">
	.st0{fill:#E2E2E2;}
</style>
<g id="_11-park">
	<path class="st0" d="M13.8,0.3C6.2,0.3,0,6.4,0,14s6.1,13.7,13.7,13.7S27.5,21.6,27.5,14C27.5,6.4,21.4,0.3,13.8,0.3z M13.8,25.4
		C7.5,25.4,2.3,20.3,2.3,14S7.5,2.6,13.8,2.6S25.2,7.7,25.2,14C25.2,20.3,20.1,25.4,13.8,25.4z"/>
	<path class="st0" d="M15.5,8.3h-4c-0.6,0-1.1,0.5-1.1,1.1v11.4h2.3v-4.6h2.9c2.2,0,4-1.8,4-4S17.7,8.3,15.5,8.3L15.5,8.3z M15.5,14
		h-2.9v-3.4h2.9c0.9,0,1.7,0.8,1.7,1.7S16.4,14,15.5,14z"/>
</g>
</svg>
