<svg id="M-flou0-160x160-bleu" xmlns="http://www.w3.org/2000/svg" width="28" height="28" viewBox="0 0 28 28">
  <g id="Groupe_511" data-name="Groupe 511">
    <path id="Tracé_2258" data-name="Tracé 2258" d="M28,14.071A14.186,14.186,0,0,0,14.035,0a14,14,0,1,0,0,28A13.906,13.906,0,0,0,28,14.071Zm-1.925,0a12.075,12.075,0,0,1-24.15,0A12.226,12.226,0,0,1,14.035,1.856,12.212,12.212,0,0,1,26.075,14.071Zm-5.11,6.195V8.05a1.367,1.367,0,0,0-1.539-1.435c-.875,0-1.225.385-1.611,1.155l-3.78,7.875H14L10.186,7.77C9.8,7,9.45,6.615,8.575,6.615A1.367,1.367,0,0,0,7.035,8.05V20.265a1.059,1.059,0,0,0,1.155,1.05,1.128,1.128,0,0,0,1.19-1.05v-9.1h.036l3.465,7.07a1.2,1.2,0,0,0,2.239,0l3.466-7.07h.035v9.1a1.129,1.129,0,0,0,1.19,1.05A1.059,1.059,0,0,0,20.965,20.265Z" fill="#e2e2e2"/>
  </g>
</svg>
