<svg id="T-flou0-160x160-bleu" xmlns="http://www.w3.org/2000/svg" width="28" height="28" viewBox="0 0 28 28">
  <g id="Groupe_514" data-name="Groupe 514">
    <path id="Tracé_2262" data-name="Tracé 2262" d="M28,14.036A14,14,0,1,0,13.966,28,14.011,14.011,0,0,0,28,14.036Zm-2.065,0A11.935,11.935,0,1,1,13.966,2.065,11.927,11.927,0,0,1,25.935,14.036ZM20.546,8.471a1,1,0,0,0-.981-1.085H8.471A1,1,0,0,0,7.49,8.471a1.045,1.045,0,0,0,.981,1.085h4.27v11.48c0,.629.666.98,1.259.98.665,0,1.3-.351,1.3-.98V9.556h4.269A1.044,1.044,0,0,0,20.546,8.471Z" fill="#e2e2e2"/>
  </g>
</svg>
