<svg id="R-flou0-160x160-bleu" xmlns="http://www.w3.org/2000/svg" width="28" height="28" viewBox="0 0 28 28">
  <path id="Tracé_2261" data-name="Tracé 2261" d="M28,14.069A14.185,14.185,0,0,0,14.036,0a14,14,0,1,0,0,28A13.907,13.907,0,0,0,28,14.069Zm-1.925,0A12.075,12.075,0,1,1,14.035,1.89,12.076,12.076,0,0,1,26.075,14.069Zm-2.029-2.24A2.639,2.639,0,0,0,21.28,9.065H18.655a.762.762,0,0,0-.769.806v8.224c0,.49.489.736.944.736.525,0,.946-.246.946-.736V14.911h.805l1.575,3.534a.687.687,0,0,0,.665.385c.559,0,1.365-.526,1.05-1.155l-1.5-3.15A2.833,2.833,0,0,0,24.045,11.829Zm-7.105,6.09a.823.823,0,0,0-.77-.875H13.511V14.63h2.2a.783.783,0,0,0,.77-.8.762.762,0,0,0-.77-.806h-2.2v-2.2h2.45a.843.843,0,0,0,.769-.875.823.823,0,0,0-.77-.876H12.39a.763.763,0,0,0-.77.805v8.189c0,.491.492.736.945.736H16.17A.844.844,0,0,0,16.94,17.919Zm-6.44-6.09A2.639,2.639,0,0,0,7.735,9.065H5.111a.764.764,0,0,0-.771.805v8.225c0,.49.49.736.945.736.524,0,.946-.246.946-.736V14.91h.8L8.61,18.445a.688.688,0,0,0,.665.385c.56,0,1.365-.526,1.05-1.156l-1.5-3.149A2.834,2.834,0,0,0,10.5,11.829Zm11.585.211a1.546,1.546,0,0,1-1.75,1.47h-.559V10.674h.665C21.315,10.674,22.085,11.06,22.085,12.04Zm-13.546,0a1.545,1.545,0,0,1-1.749,1.47H6.23V10.674h.663C7.77,10.674,8.54,11.06,8.539,12.04Z" fill="#e2e2e2"/>
</svg>
