<svg id="B-flou0-160x160-bleu" xmlns="http://www.w3.org/2000/svg" width="28" height="28" viewBox="0 0 28 28">
  <g id="Groupe_513" data-name="Groupe 513">
    <path id="Tracé_2260" data-name="Tracé 2260" d="M28,14.07A14.187,14.187,0,0,0,14.034,0a14,14,0,1,0,0,28A13.907,13.907,0,0,0,28,14.07Zm-1.925,0A12.075,12.075,0,1,1,14.034,1.89,12.077,12.077,0,0,1,26.075,14.07Zm-1.96,1.855a3.1,3.1,0,0,0-1.819-2.836l-.77-.419a1.375,1.375,0,0,1-.841-1.12.994.994,0,0,1,1.121-.945,2.962,2.962,0,0,1,1.19.316c.489.244.805-.07.946-.6.174-.595-.071-.8-.491-1.014a3.771,3.771,0,0,0-1.61-.35A2.823,2.823,0,0,0,18.829,11.8a2.978,2.978,0,0,0,1.82,2.765l.8.455a1.367,1.367,0,0,1,.806,1.19c0,.666-.631.98-1.26.98a3.9,3.9,0,0,1-1.4-.35c-.526-.245-.805.07-.981.63-.175.6.106.84.56,1.05A4.532,4.532,0,0,0,21,18.9,2.941,2.941,0,0,0,24.114,15.925Zm-6.125-.351V9.765c0-.49-.489-.735-.944-.735-.491,0-.944.245-.944.735V15.33c0,1.12-.351,1.855-1.261,1.855-.875,0-1.3-.7-1.3-1.855V9.765c0-.49-.525-.735-.98-.735-.525,0-.981.245-.981.735v5.775c0,2.311,1.155,3.361,3.256,3.361C16.73,18.9,17.989,17.815,17.989,15.575ZM10.675,16a2.188,2.188,0,0,0-1.716-2.31V13.65a2.471,2.471,0,0,0,1.541-2.2A2.5,2.5,0,0,0,7.734,9.065H5.109a.762.762,0,0,0-.769.806V18.06c0,.491.49.736.944.736H7.77A2.648,2.648,0,0,0,10.675,16ZM8.54,11.9c0,.91-.77,1.225-1.575,1.225H6.229v-2.45h.736C7.8,10.675,8.54,10.955,8.54,11.9Zm.28,3.885c0,.945-.525,1.4-1.645,1.4H6.334v-2.73h.841C7.875,14.455,8.82,14.7,8.82,15.785Z" fill="#e2e2e2"/>
  </g>
</svg>
