<?xml version="1.0" encoding="utf-8"?>
<!-- Generator: Adobe Illustrator 19.0.0, SVG Export Plug-In . SVG Version: 6.00 Build 0)  -->
<svg version="1.1" id="Calque_1" xmlns="http://www.w3.org/2000/svg" xmlns:xlink="http://www.w3.org/1999/xlink" x="0px" y="0px"
	 viewBox="0 0 801 546.3" style="enable-background:new 0 0 801 546.3;" xml:space="preserve">
<style type="text/css">
	.st0{fill:#0C4379;}
	.st1{fill:#A0C518;}
	.st2{fill:#F8BC00;}
	.st3{fill:#24AFC7;}
	.st4{fill:#E72D74;}
</style>
<g id="XMLID_8_">
	<path id="XMLID_110_" class="st0" d="M77.2,197.1c43,0,74.4,32.7,74.4,75s-31,75-74.4,75c-43,0-74.4-32.4-74.4-75
		C2.8,229.7,34.2,197.1,77.2,197.1z M77.2,325.5c29,0,50.7-22.3,50.7-53.4c0-30.7-21.7-53.4-50.7-53.4s-50.7,23-50.7,53.4
		C26.8,303.1,48.2,325.5,77.2,325.5z"/>
	<path id="XMLID_143_" class="st0" d="M173.9,199.7h38.7c31,0,48.4,18.3,48.4,42.4c0,16.7-9,31-23.7,37l35,64.7H247l-30.4-59.7h-20
		v59.7h-23V199.7H173.9z M212.3,265.1c14.3,0,25-8,25-22.7c0-13.3-8.3-22.3-25-22.3h-15.3v45.4h15.3V265.1z"/>
	<path id="XMLID_150_" class="st0" d="M290.7,199.7h23v124.1h50.7v20.7H291V199.7H290.7z"/>
	<path id="XMLID_152_" class="st0" d="M376,261.4h38v20.3h-38V261.4z"/>
	<path id="XMLID_154_" class="st0" d="M444.7,199.7h34c48.4,0,77,27,77,72.4c0,47-29.4,72.4-77,72.4h-34V199.7z M481.1,324.1
		c31,0,51-17.7,51-52.4c0-33.4-20-52-51-52h-13.3v104.4L481.1,324.1L481.1,324.1z"/>
	<path id="XMLID_159_" class="st0" d="M578.2,199.7h42c27.3,0,46.4,17.3,46.4,43.4c0,25.7-19.7,44-46,44h-19.3v57h-23L578.2,199.7
		L578.2,199.7z M617.5,267.1c15,0,25.3-9.3,25.3-24c0-14.3-10.3-23.3-25.3-23.3h-16.7v47.4H617.5z"/>
	<path id="XMLID_163_" class="st0" d="M798.3,331.8c-7.3,5.7-23,15-45.4,15c-43.7,0-74.4-32.4-74.4-75c0-42.4,31.7-75,74-75
		c20.3,0,35.4,7.7,43.7,14l-6.7,20.3c-6.3-4.7-19.3-12.7-36.4-12.7c-30,0-51,23.7-51,53.4c0,30,20.3,53.4,51,53.4
		c18.7,0,32.4-9.3,38-13.7L798.3,331.8z"/>
</g>
<g id="XMLID_113_">
	<path id="XMLID_134_" class="st1" d="M207.9,156.7L207.9,156.7c-14.3,0-25.7-11.7-25.7-25.7V73.3c0-14.3,11.7-25.7,25.7-25.7l0,0
		c14.3,0,25.7,11.7,25.7,25.7V131C233.6,145,221.9,156.7,207.9,156.7z"/>
	<path id="XMLID_114_" class="st2" d="M283.3,112.7L283.3,112.7c-14.3,0-25.7-11.7-25.7-25.7V29.3c0-14.3,11.7-25.7,25.7-25.7l0,0
		c14.3,0,25.7,11.7,25.7,25.7V87C309,101,297.3,112.7,283.3,112.7z"/>
	<path id="XMLID_121_" class="st1" d="M509.4,156.7L509.4,156.7c-14.3,0-25.7-11.7-25.7-25.7V73.3c0-14.3,11.7-25.7,25.7-25.7l0,0
		c14.3,0,25.7,11.7,25.7,25.7V131C535.1,145,523.5,156.7,509.4,156.7z"/>
	<path id="XMLID_117_" class="st2" d="M584.8,112.7L584.8,112.7c-14.3,0-25.7-11.7-25.7-25.7V29.3c0-14.3,11.7-25.7,25.7-25.7l0,0
		c14.3,0,25.7,11.7,25.7,25.7V87C610.5,101,598.8,112.7,584.8,112.7z"/>
	<path id="XMLID_116_" class="st3" d="M434.1,112.7L434.1,112.7c-14.3,0-25.7-11.7-25.7-25.7V29.3c0-14.3,11.7-25.7,25.7-25.7l0,0
		c14.3,0,25.7,11.7,25.7,25.7V87C459.8,101,448.1,112.7,434.1,112.7z"/>
	<path id="XMLID_115_" class="st4" d="M358.7,156.7L358.7,156.7c-14.3,0-25.7-11.7-25.7-25.7V73.3c0-14.3,11.7-25.7,25.7-25.7l0,0
		c14.3,0,25.7,11.7,25.7,25.7V131C384.4,145,372.7,156.7,358.7,156.7z"/>
</g>
<g id="XMLID_144_">
	<path id="XMLID_178_" class="st1" d="M584.8,391.2L584.8,391.2c14.3,0,25.7,11.7,25.7,25.7v57.7c0,14.3-11.7,25.7-25.7,25.7l0,0
		c-14.3,0-25.7-11.7-25.7-25.7v-57.7C558.8,402.8,570.5,391.2,584.8,391.2z"/>
	<path id="XMLID_177_" class="st2" d="M509.4,435.2L509.4,435.2c14.3,0,25.7,11.7,25.7,25.7v57.7c0,14.3-11.7,25.7-25.7,25.7l0,0
		c-14.3,0-25.7-11.7-25.7-25.7v-57.7C483.4,446.9,495.1,435.2,509.4,435.2z"/>
	<path id="XMLID_175_" class="st1" d="M283.3,391.2L283.3,391.2c14.3,0,25.7,11.7,25.7,25.7v57.7c0,14.3-11.7,25.7-25.7,25.7l0,0
		c-14.3,0-25.7-11.7-25.7-25.7v-57.7C257.3,402.8,269,391.2,283.3,391.2z"/>
	<path id="XMLID_174_" class="st2" d="M207.9,435.2L207.9,435.2c14.3,0,25.7,11.7,25.7,25.7v57.7c0,14.3-11.7,25.7-25.7,25.7l0,0
		c-14.3,0-25.7-11.7-25.7-25.7v-57.7C181.9,446.9,193.6,435.2,207.9,435.2z"/>
	<path id="XMLID_172_" class="st3" d="M358.7,435.2L358.7,435.2c14.3,0,25.7,11.7,25.7,25.7v57.7c0,14.3-11.7,25.7-25.7,25.7l0,0
		c-14.3,0-25.7-11.7-25.7-25.7v-57.7C332.7,446.9,344.3,435.2,358.7,435.2z"/>
	<path id="XMLID_158_" class="st4" d="M434.1,391.2L434.1,391.2c14.3,0,25.7,11.7,25.7,25.7v57.7c0,14.3-11.7,25.7-25.7,25.7l0,0
		c-14.3,0-25.7-11.7-25.7-25.7v-57.7C408.1,402.8,419.7,391.2,434.1,391.2z"/>
</g>
</svg>
