<?xml version="1.0" standalone="no"?>
<!DOCTYPE svg PUBLIC "-//W3C//DTD SVG 20010904//EN"
 "http://www.w3.org/TR/2001/REC-SVG-20010904/DTD/svg10.dtd">
<svg version="1.0" xmlns="http://www.w3.org/2000/svg"
 width="801.000000pt" height="801.000000pt" viewBox="0 0 801.000000 801.000000"
 preserveAspectRatio="xMidYMid meet">
<metadata>
Created by potrace 1.11, written by Peter Selinger 2001-2013
</metadata>
<g transform="translate(0.000000,801.000000) scale(0.100000,-0.100000)"
fill="#000000" stroke="none">
<path d="M2750 6690 c-67 -23 -117 -67 -149 -133 l-28 -59 2 -341 c1 -188 4
-352 8 -363 8 -30 51 -95 76 -116 136 -113 340 -64 406 98 21 52 22 65 21 391
-2 321 -3 340 -23 383 -25 55 -76 108 -123 129 -62 27 -130 31 -190 11z"/>
<path d="M4299 6699 c-106 -16 -193 -96 -214 -195 -8 -39 -9 -640 -1 -683 15
-78 79 -157 155 -189 20 -8 63 -15 96 -15 106 -1 191 56 236 158 21 48 22 62
22 365 0 173 -3 333 -7 355 -12 74 -79 161 -145 187 -45 18 -95 24 -142 17z"/>
<path d="M5800 6700 c-87 -17 -158 -71 -194 -150 -19 -42 -20 -65 -21 -381 0
-185 3 -349 7 -366 4 -17 23 -53 41 -79 40 -58 120 -104 186 -108 49 -3 131
13 131 26 0 4 7 8 16 8 21 0 91 76 112 120 23 50 25 716 2 770 -47 113 -166
181 -280 160z"/>
<path d="M2008 6253 c-66 -17 -129 -69 -160 -130 -20 -43 -24 -66 -28 -212 -3
-89 -2 -167 1 -173 3 -5 3 -23 0 -39 -3 -16 -4 -100 -1 -187 5 -149 6 -160 32
-203 86 -147 267 -178 391 -68 88 77 89 84 90 474 0 334 0 341 -23 393 -38 87
-126 150 -222 156 -15 1 -51 -4 -80 -11z"/>
<path d="M3538 6260 c-59 -11 -120 -47 -155 -93 -55 -74 -59 -107 -58 -467 l1
-325 27 -54 c49 -96 138 -150 240 -145 71 3 121 27 172 79 53 55 74 113 72
199 -1 36 2 66 6 66 5 0 5 5 2 10 -4 6 -6 34 -6 63 1 29 1 59 1 67 0 8 0 33
-1 55 0 22 0 45 1 50 1 6 1 15 0 20 -5 22 -2 124 5 134 3 6 3 11 -2 11 -4 0
-8 30 -7 68 0 81 -16 128 -65 180 -60 65 -150 96 -233 82z"/>
<path d="M5028 6255 c-85 -21 -147 -76 -182 -158 -12 -31 -15 -94 -15 -372 -1
-388 2 -404 83 -480 130 -120 329 -79 408 84 22 45 22 55 23 391 0 341 -1 346
-24 390 -61 120 -174 176 -293 145z"/>
<path d="M7467 4774 c-1 -1 -27 -5 -57 -9 -205 -23 -409 -153 -516 -327 -45
-74 -89 -181 -99 -243 -5 -28 -10 -57 -11 -65 -2 -8 -4 -44 -6 -80 -8 -264
106 -504 308 -646 34 -24 174 -97 174 -90 0 2 21 -2 48 -10 26 -8 65 -18 87
-21 62 -10 218 -7 272 6 26 6 58 13 70 16 67 12 233 104 233 128 -1 7 -14 46
-30 87 -17 41 -30 81 -30 88 0 17 -25 15 -40 -2 -16 -20 -145 -82 -200 -96
-64 -17 -186 -22 -250 -9 -249 47 -413 263 -405 531 1 40 5 87 9 103 3 17 8
41 11 53 11 59 72 160 130 217 77 76 85 81 140 105 101 43 220 56 330 35 57
-10 152 -50 205 -85 l45 -30 20 62 c11 35 23 68 26 73 18 30 19 68 2 81 -40
32 -154 84 -218 101 -70 18 -238 36 -248 27z"/>
<path d="M610 4754 c-219 -46 -394 -178 -498 -375 -16 -30 -32 -68 -37 -85 -4
-16 -9 -33 -11 -39 -26 -96 -31 -131 -32 -228 -1 -185 44 -332 142 -466 103
-140 285 -251 455 -278 53 -9 239 -8 293 1 63 10 233 76 248 95 3 4 19 16 36
26 66 41 152 134 202 216 24 39 84 179 77 179 -3 0 0 11 5 24 29 77 29 276 1
388 -21 80 -68 191 -105 242 -114 163 -294 275 -486 305 -88 13 -211 11 -290
-5z m280 -214 c19 -5 38 -10 43 -10 29 0 138 -71 190 -123 98 -98 148 -218
151 -367 9 -353 -251 -594 -591 -546 -87 12 -193 67 -263 138 -200 199 -205
560 -12 766 122 129 313 185 482 142z"/>
<path d="M1734 4025 l1 -720 112 -1 c93 0 112 2 115 15 2 9 3 143 3 299 l-1
282 101 0 100 0 151 -298 150 -297 122 -1 c67 0 122 4 122 9 0 4 -33 70 -74
145 -92 171 -127 237 -179 332 -22 41 -50 94 -63 117 l-23 43 32 16 c93 48
164 143 194 259 21 82 2 221 -42 305 -27 52 -107 126 -172 158 -55 28 -70 33
-153 48 -19 4 -139 7 -266 8 l-230 1 0 -720z m523 487 c77 -40 113 -108 109
-204 -5 -122 -76 -196 -201 -213 -77 -11 -186 -12 -192 -2 -4 7 -7 342 -4 431
1 17 9 18 124 14 100 -4 130 -8 164 -26z"/>
<path d="M2919 4742 c-12 -2 -14 -106 -14 -722 0 -396 2 -720 5 -721 23 -4
714 -3 721 2 6 3 8 50 7 105 l-3 98 -251 0 -250 0 0 614 c1 338 -1 617 -4 621
-5 6 -180 9 -211 3z"/>
<path d="M4445 4740 c-1 -3 -3 -327 -3 -722 0 -654 2 -717 17 -720 49 -12 477
2 531 17 8 2 26 6 40 9 50 9 169 57 220 89 49 30 135 108 170 153 22 29 76
134 89 175 27 85 35 142 35 269 1 166 -12 241 -64 356 -39 86 -89 147 -190
234 -64 55 -233 118 -365 136 -58 8 -475 12 -480 4z m465 -204 c19 -2 35 -4
35 -6 0 -1 11 -4 25 -6 107 -19 241 -129 289 -236 95 -210 62 -501 -73 -642
-95 -99 -193 -135 -382 -143 l-132 -6 1 519 c0 302 4 521 9 525 8 5 145 2 228
-5z"/>
<path d="M5781 4735 c-4 -5 -7 -329 -7 -720 l1 -710 115 0 115 0 0 283 0 282
120 1 c133 1 157 3 231 24 65 19 166 86 202 133 15 21 29 39 33 42 9 9 46 93
53 125 4 17 9 55 12 85 15 229 -127 411 -358 456 -59 11 -508 11 -517 -1z
m501 -214 c87 -38 130 -103 134 -204 2 -55 -3 -77 -23 -117 -48 -96 -124 -130
-288 -130 l-102 0 -1 238 -1 237 119 -3 c89 -2 131 -7 162 -21z"/>
<path d="M3755 4031 c0 -53 3 -98 7 -101 4 -3 90 -6 190 -5 l183 0 0 101 0
101 -190 0 -190 0 0 -96z"/>
<path d="M2760 2821 c-73 -23 -128 -69 -163 -136 -21 -38 -21 -54 -23 -385 -1
-384 1 -397 63 -469 76 -89 198 -114 303 -63 67 33 125 105 138 172 14 67 9
666 -6 716 -17 57 -81 127 -139 151 -51 20 -131 27 -173 14z"/>
<path d="M4255 2816 c-77 -29 -110 -57 -150 -127 -24 -43 -25 -60 -26 -421 -1
-333 5 -372 65 -440 129 -145 371 -98 432 84 15 45 17 95 16 382 0 309 -2 334
-20 376 -44 99 -119 151 -222 155 -36 2 -78 -2 -95 -9z"/>
<path d="M5741 2809 c-56 -25 -109 -76 -133 -128 -21 -44 -22 -61 -23 -386 -1
-378 1 -393 63 -466 19 -22 59 -51 89 -65 101 -48 222 -20 297 68 60 69 63 94
63 463 0 182 -2 335 -5 340 -4 6 -7 16 -8 23 -5 28 -56 93 -96 122 -72 53
-169 64 -247 29z"/>
<path d="M1995 2378 c-71 -26 -144 -97 -160 -154 -14 -50 -17 -85 -14 -179 0
-11 0 -137 0 -280 -1 -252 0 -261 23 -310 31 -65 67 -102 130 -131 112 -52
249 -10 319 97 37 57 42 105 41 429 -1 173 -4 326 -7 340 -7 31 -19 62 -29 75
-74 91 -118 116 -208 121 -36 2 -78 -1 -95 -8z"/>
<path d="M3509 2381 c-46 -15 -74 -33 -114 -75 -67 -70 -71 -94 -70 -472 l1
-331 28 -57 c94 -192 360 -193 459 -1 17 34 32 150 28 220 0 6 -2 29 -3 53 -2
23 1 42 5 42 5 0 5 5 2 10 -6 9 -7 42 -5 130 1 8 -1 34 -2 58 -2 23 1 42 5 42
5 0 6 4 2 9 -3 5 -7 52 -9 103 -2 70 -8 103 -24 134 -25 50 -73 98 -120 120
-40 19 -144 28 -183 15z"/>
<path d="M4985 2366 c-65 -32 -98 -62 -127 -116 -23 -44 -23 -50 -26 -391 -2
-335 -1 -348 20 -398 25 -62 97 -131 154 -148 21 -6 66 -10 99 -9 105 5 189
71 224 175 14 39 16 101 16 377 l-1 330 -27 55 c-45 94 -113 139 -217 146 -54
3 -73 0 -115 -21z"/>
</g>
</svg>
